<?xml version="1.0" encoding="UTF-8"?>
<svg version="1.1" xmlns="http://www.w3.org/2000/svg" width="4320" height="4320">
<path d="M0 0 C4.84666895 0.00754377 9.69325609 0.00481241 14.53992206 -0.00360364 C49.4787686 -0.06262155 84.3343929 0.40837091 119.23230487 2.25713855 C119.97940219 2.29601688 120.72649951 2.3348952 121.49623615 2.37495166 C130.45533907 2.84170823 139.40729178 3.39004057 148.35730487 4.00713855 C149.57526752 4.08983997 150.79323016 4.17254138 152.04810077 4.2577489 C257.00358007 11.44400441 361.52520421 25.94898322 674.23230487 105.25713855 C674.9998006 105.50723682 675.76729633 105.75733508 676.5580495 106.01501209 C687.80880584 109.68603422 699.02925476 113.44317565 710.23230487 117.25713855 C711.00195575 117.51863696 711.77160663 117.78013538 712.56458026 118.04955798 C796.26890902 146.50998183 877.85514474 181.21064451 1014.593633 248.84795886 C1017.66303245 250.48716812 1020.73689667 252.1178813 1023.81042987 253.74932605 C1037.72839207 261.14882848 1051.53984251 268.71259789 1065.22302753 276.53985339 C1068.4437387 278.37779615 1071.67157414 280.20279955 1074.90027362 282.0266698 C1088.82397061 289.90614602 1102.5756111 298.0275068 1116.22360736 306.37513477 C1121.87994072 309.8345068 1127.56221037 313.23842514 1133.29480487 316.56963855 C1141.5765485 321.39795186 1149.66463288 326.5168967 1157.7445119 331.67413074 C1160.21273384 333.2446853 1162.68820828 334.80313478 1165.16589862 336.35870105 C1221.05512906 371.53952331 1274.91993622 409.97743007 1327.23230487 450.25713855 C1327.97271014 450.82722644 1328.71311542 451.39731433 1329.47595721 451.98467761 C1339.6131729 459.80200949 1349.61683149 467.76439073 1359.52673846 475.86749011 C1361.85348663 477.76326031 1364.19760795 479.63677376 1366.54480487 481.50713855 C1374.6019309 487.93941083 1382.54537676 494.49766094 1390.40002948 501.17486316 C1393.77023503 504.03523114 1397.17229949 506.8494784 1400.60730487 509.63213855 C1406.31175117 514.27683285 1411.85499076 519.09687595 1417.40027362 523.92901355 C1419.86966945 526.0793547 1422.34994821 528.21543775 1424.84558612 530.33526355 C1431.82902821 536.26727906 1438.64018017 542.34077048 1445.34558612 548.58526355 C1448.23596505 551.26052632 1451.18115371 553.85540809 1454.15808612 556.4329198 C1458.39820364 560.16198737 1462.53171049 564.01055164 1466.68542987 567.83526355 C1468.15645597 569.18741885 1469.63176692 570.53490824 1471.10730487 571.88213855 C1493.9156382 592.70713855 1493.9156382 592.70713855 1503.82605487 602.91338855 C1505.74546371 604.78294261 1507.68501728 606.51311721 1509.72034198 608.24957019 C1514.98460482 612.84348303 1519.89764822 617.77779573 1524.82996112 622.7219823 C1525.8329439 623.72428936 1526.8360749 624.72644811 1527.83934528 625.72846729 C1529.92939625 627.81705389 1532.01765375 629.90741243 1534.10461932 631.99908191 C1536.75928357 634.65944265 1539.41841371 637.31528697 1542.07891685 639.96980697 C1544.14755436 642.03480461 1546.21377186 644.10221059 1548.27930003 646.17031795 C1549.25802492 647.14970266 1550.23747294 648.12836536 1551.21770412 649.10624248 C1556.23603281 654.11515725 1561.15336089 659.1504754 1565.74852496 664.55317432 C1568.25980652 667.43711548 1570.99864328 670.08618698 1573.73230487 672.75713855 C1577.89791102 676.87057087 1581.90100553 681.0345743 1585.69324237 685.49932605 C1587.30171037 687.33640879 1588.99069356 689.04621642 1590.73230487 690.75713855 C1593.67771217 693.65713208 1596.38694196 696.69340287 1599.08386737 699.8235448 C1601.90850606 703.02309008 1604.81981071 706.13766719 1607.73230487 709.25713855 C1611.74835666 713.5624774 1615.72359733 717.88681527 1619.56824237 722.3469823 C1621.54770613 724.61918366 1623.57813657 726.84173727 1625.60730487 729.06963855 C1628.73653314 732.53243937 1631.73730836 736.06392858 1634.66980487 739.69463855 C1637.74567075 743.49801358 1640.91983653 747.15796507 1644.23230487 750.75713855 C1648.27185305 755.15092403 1652.07910106 759.67552679 1655.82605487 764.31963855 C1658.53009257 767.62067158 1661.31341719 770.84479068 1664.10730487 774.06963855 C1668.61761544 779.28841603 1672.9306941 784.62687516 1677.15759784 790.07671863 C1680.25495309 794.05545774 1683.45260217 797.92771956 1686.73230487 801.75713855 C1691.90100463 807.80433463 1696.83400918 814.01320996 1701.7108205 820.29717761 C1703.3660312 822.42940347 1705.02550399 824.55826915 1706.68542987 826.68682605 C1710.20736254 831.2053785 1713.72133718 835.73006304 1717.23230487 840.25713855 C1717.67928729 840.83286609 1718.12626971 841.40859363 1718.58679706 842.00176746 C1730.57394049 857.45387027 1742.23603235 873.14499073 1753.6351369 889.03497058 C1755.25487386 891.28853919 1756.88113946 893.537246 1758.50964862 895.7844823 C1763.82850137 903.12475177 1769.12420783 910.48041718 1774.35730487 917.88213855 C1774.78728778 918.48936755 1775.21727069 919.09659656 1775.66028339 919.72222644 C1785.29977538 933.39660768 1794.64379667 947.27218654 1803.91980487 961.19463855 C1804.48712329 962.04575214 1805.05444171 962.89686572 1805.6389516 963.77377063 C1815.00418505 977.83189204 1824.22469491 991.96664697 1833.23230487 1006.25713855 C1834.4432322 1008.16599917 1835.65416978 1010.07485329 1836.86511737 1011.98370105 C1846.16074541 1026.69425804 1855.06369242 1041.62849957 1863.90213519 1056.61620837 C1866.20410074 1060.51941675 1868.51565792 1064.41664676 1870.83777362 1068.3079198 C1877.67803718 1079.78490633 1884.27904798 1091.38073081 1890.77136737 1103.0579198 C1892.96933665 1107.00825779 1895.19008209 1110.94349497 1897.44324237 1114.8626073 C1905.44564573 1128.80231748 1912.86746049 1142.99568836 1920.17195636 1157.30848438 C1922.77398052 1162.39382007 1925.43659926 1167.44589056 1928.10730487 1172.4954198 C1933.21405135 1182.16519136 1938.15915006 1191.91156771 1943.04480487 1201.69463855 C1943.69468875 1202.99481418 1943.69468875 1202.99481418 1944.3577016 1204.32125598 C1951.34091623 1218.30767155 1958.08479074 1232.37849113 1964.56140643 1246.60772449 C1966.38299538 1250.59866275 1968.2419711 1254.57189565 1970.09949237 1258.54620105 C1987.05488336 1294.90314142 2002.69715971 1331.86760749 2017.23230487 1369.25713855 C2017.69609546 1370.44931995 2017.69609546 1370.44931995 2018.16925555 1371.66558582 C2028.36384359 1397.89954747 2038.07205452 1424.2936443 2047.38782245 1450.85192615 C2048.19232847 1453.14327977 2048.99991556 1455.43352186 2049.80847675 1457.72344714 C2085.59026323 1559.19418493 2112.33312344 1664.28320518 2162.41980487 2017.56963855 C2162.4987096 2018.70513141 2162.57761432 2019.84062427 2162.6589101 2021.010526 C2163.25960938 2029.7553994 2163.7702795 2038.50399611 2164.23230487 2047.25713855 C2164.2757075 2048.06993022 2164.31911014 2048.88272189 2164.363828 2049.72014362 C2166.20400613 2084.48570345 2166.54987907 2119.22032067 2166.48944342 2154.02483368 C2166.48189965 2158.87150263 2166.48463101 2163.71808977 2166.49304706 2168.56475574 C2166.55206497 2203.50360228 2166.08107251 2238.35922658 2164.23230487 2273.25713855 C2164.17398738 2274.37778453 2164.17398738 2274.37778453 2164.11449176 2275.52106982 C2163.64773519 2284.48017275 2163.09940285 2293.43212546 2162.48230487 2302.38213855 C2162.39960346 2303.6001012 2162.31690204 2304.81806384 2162.23169452 2306.07293445 C2155.04543901 2411.02841375 2140.5404602 2515.55003789 2061.23230487 2828.25713855 C2060.9822066 2829.02463428 2060.73210834 2829.79213001 2060.47443134 2830.58288318 C2056.8034092 2841.83363952 2053.04626777 2853.05408844 2049.23230487 2864.25713855 C2048.84005725 2865.41161487 2048.84005725 2865.41161487 2048.43988544 2866.58941394 C2019.97946159 2950.2937427 1985.27879891 3031.87997841 1917.64148456 3168.61846668 C1916.0022753 3171.68786613 1914.37156212 3174.76173035 1912.74011737 3177.83526355 C1905.34061494 3191.75322575 1897.77684553 3205.56467619 1889.94959003 3219.24786121 C1888.11164727 3222.46857238 1886.28664387 3225.69640782 1884.46277362 3228.9251073 C1876.5832974 3242.84880429 1868.46193662 3256.60044478 1860.11430866 3270.24844104 C1856.65493662 3275.9047744 1853.25101828 3281.58704405 1849.91980487 3287.31963855 C1845.09149156 3295.60138217 1839.97254672 3303.68946656 1834.81531268 3311.76934558 C1833.24475812 3314.23756752 1831.68630864 3316.71304196 1830.13074237 3319.1907323 C1794.94992012 3375.07996274 1756.51201335 3428.9447699 1716.23230487 3481.25713855 C1715.66221698 3481.99754382 1715.09212909 3482.7379491 1714.50476581 3483.50079089 C1706.68743393 3493.63800658 1698.72505269 3503.64166517 1690.62195331 3513.55157214 C1688.72618312 3515.87832031 1686.85266967 3518.22244162 1684.98230487 3520.56963855 C1678.55003259 3528.62676458 1671.99178248 3536.57021044 1665.31458026 3544.42486316 C1662.45421228 3547.79506871 1659.63996502 3551.19713317 1656.85730487 3554.63213855 C1652.21261057 3560.33658485 1647.39256748 3565.87982444 1642.56042987 3571.4251073 C1640.41008872 3573.89450313 1638.27400568 3576.37478189 1636.15417987 3578.8704198 C1630.22216436 3585.85386189 1624.14867294 3592.66501385 1617.90417987 3599.3704198 C1615.22891711 3602.26079872 1612.63403533 3605.20598739 1610.05652362 3608.1829198 C1606.32745605 3612.42303732 1602.47889178 3616.55654417 1598.65417987 3620.71026355 C1597.30202457 3622.18128965 1595.95453518 3623.6566006 1594.60730487 3625.13213855 C1573.78230487 3647.94047188 1573.78230487 3647.94047188 1563.57605487 3657.85088855 C1561.70650081 3659.77029739 1559.97632621 3661.70985096 1558.23987323 3663.74517566 C1553.64596039 3669.0094385 1548.71164769 3673.9224819 1543.76746112 3678.8547948 C1542.76515406 3679.85777758 1541.76299531 3680.86090858 1540.76097614 3681.86417896 C1538.67238953 3683.95422993 1536.58203099 3686.04248743 1534.49036151 3688.129453 C1531.83000078 3690.78411725 1529.17415645 3693.44324739 1526.51963645 3696.10375053 C1524.45463881 3698.17238804 1522.38723284 3700.23860554 1520.31912547 3702.30413371 C1519.33974076 3703.2828586 1518.36107806 3704.26230662 1517.38320094 3705.2425378 C1512.37428617 3710.26086649 1507.33896802 3715.17819457 1501.9362691 3719.77335864 C1499.05232794 3722.2846402 1496.40325644 3725.02347696 1493.73230487 3727.75713855 C1489.61887256 3731.9227447 1485.45486913 3735.9258392 1480.99011737 3739.71807605 C1479.15303463 3741.32654405 1477.443227 3743.01552723 1475.73230487 3744.75713855 C1472.83231134 3747.70254585 1469.79604056 3750.41177564 1466.66589862 3753.10870105 C1463.46635334 3755.93333974 1460.35177623 3758.84464439 1457.23230487 3761.75713855 C1452.92696602 3765.77319034 1448.60262816 3769.74843101 1444.14246112 3773.59307605 C1441.87025976 3775.57253981 1439.64770615 3777.60297025 1437.41980487 3779.63213855 C1433.95700405 3782.76136682 1430.42551484 3785.76214204 1426.79480487 3788.69463855 C1422.99142984 3791.77050443 1419.33147835 3794.94467021 1415.73230487 3798.25713855 C1411.33851939 3802.29668673 1406.81391664 3806.10393474 1402.16980487 3809.85088855 C1398.86877184 3812.55492625 1395.64465274 3815.33825087 1392.41980487 3818.13213855 C1387.20102739 3822.64244912 1381.86256826 3826.95552778 1376.41272479 3831.18243152 C1372.43398568 3834.27978677 1368.56172386 3837.47743585 1364.73230487 3840.75713855 C1358.68510879 3845.92583831 1352.47623347 3850.85884285 1346.19226581 3855.73565418 C1344.06003995 3857.39086488 1341.93117427 3859.05033766 1339.80261737 3860.71026355 C1335.28406492 3864.23219622 1330.75938038 3867.74617086 1326.23230487 3871.25713855 C1325.65657733 3871.70412097 1325.08084979 3872.15110339 1324.48767596 3872.61163074 C1309.03557315 3884.59877417 1293.34445269 3896.26086603 1277.45447284 3907.65997058 C1275.20090424 3909.27970754 1272.95219742 3910.90597314 1270.70496112 3912.5344823 C1263.36469165 3917.85333505 1256.00902624 3923.14904151 1248.60730487 3928.38213855 C1248.00007587 3928.81212146 1247.39284686 3929.24210437 1246.76721698 3929.68511707 C1233.09283574 3939.32460906 1219.21725688 3948.66863035 1205.29480487 3957.94463855 C1204.44369128 3958.51195697 1203.5925777 3959.07927539 1202.71567279 3959.66378528 C1188.65755138 3969.02901872 1174.52279645 3978.24952859 1160.23230487 3987.25713855 C1158.32344425 3988.46806588 1156.41459013 3989.67900346 1154.50574237 3990.88995105 C1139.79518538 4000.18557908 1124.86094385 4009.0885261 1109.87323505 4017.92696887 C1105.97002668 4020.22893442 1102.07279666 4022.5404916 1098.18152362 4024.8626073 C1086.70453709 4031.70287086 1075.10871261 4038.30388166 1063.43152362 4044.79620105 C1059.48118564 4046.99417033 1055.54594845 4049.21491577 1051.62683612 4051.46807605 C1037.68712594 4059.47047941 1023.49375506 4066.89229417 1009.18095905 4074.19679004 C1004.09562335 4076.7988142 999.04355286 4079.46143294 993.99402362 4082.13213855 C984.32425206 4087.23888503 974.57787571 4092.18398374 964.79480487 4097.06963855 C963.92802112 4097.50289447 963.06123737 4097.93615039 962.16818744 4098.38253528 C948.18177187 4105.36574991 934.11095229 4112.10962442 919.88171893 4118.58624011 C915.89078067 4120.40782906 911.91754777 4122.26680478 907.94324237 4124.12432605 C871.586302 4141.07971704 834.62183593 4156.72199339 797.23230487 4171.25713855 C796.04012347 4171.72092914 796.04012347 4171.72092914 794.82385761 4172.19408923 C768.58989595 4182.38867727 742.19579912 4192.0968882 715.63751727 4201.41265613 C713.34616365 4202.21716215 711.05592156 4203.02474924 708.76599628 4203.83331043 C607.29525849 4239.61509691 502.20623824 4266.35795711 148.91980487 4316.44463855 C147.78431201 4316.52354327 146.64881915 4316.602448 145.47891742 4316.68374377 C136.73404402 4317.28444306 127.98544731 4317.79511318 119.23230487 4318.25713855 C118.01311736 4318.3222425 118.01311736 4318.3222425 116.76929981 4318.38866168 C82.00373997 4320.22883981 47.26912275 4320.57471275 12.46460974 4320.5142771 C7.61794079 4320.50673333 2.77135365 4320.50946469 -2.07531232 4320.51788074 C-37.01415886 4320.57689865 -71.86978316 4320.10590619 -106.76769513 4318.25713855 C-107.51479245 4318.21826022 -108.26188977 4318.1793819 -109.0316264 4318.13932544 C-117.99072932 4317.67256887 -126.94268203 4317.12423653 -135.89269513 4316.50713855 C-137.11065778 4316.42443713 -138.32862042 4316.34173572 -139.58349103 4316.2565282 C-244.53897033 4309.07027269 -349.06059447 4294.56529388 -661.76769513 4215.25713855 C-662.91893872 4214.88199115 -662.91893872 4214.88199115 -664.09343976 4214.49926502 C-675.3441961 4210.82824288 -686.56464502 4207.07110145 -697.76769513 4203.25713855 C-698.92217145 4202.86489093 -698.92217145 4202.86489093 -700.09997052 4202.46471912 C-783.80429928 4174.00429527 -865.39053499 4139.30363259 -1002.12902325 4071.66631824 C-1005.19842271 4070.02710898 -1008.27228693 4068.3963958 -1011.34582013 4066.76495105 C-1025.26378233 4059.36544862 -1039.07523277 4051.80167921 -1052.75841779 4043.97442371 C-1055.97912896 4042.13648095 -1059.2069644 4040.31147755 -1062.43566388 4038.4876073 C-1076.35936086 4030.60813108 -1090.11100136 4022.4867703 -1103.75899762 4014.13914233 C-1109.41533098 4010.6797703 -1115.09760062 4007.27585196 -1120.83019513 4003.94463855 C-1129.11193875 3999.11632524 -1137.20002314 3993.9973804 -1145.27990216 3988.84014636 C-1147.7481241 3987.2695918 -1150.22359853 3985.71114232 -1152.70128888 3984.15557605 C-1208.59051932 3948.9747538 -1262.45532648 3910.53684703 -1314.76769513 3870.25713855 C-1315.5081004 3869.68705066 -1316.24850568 3869.11696277 -1317.01134747 3868.52959949 C-1327.14856316 3860.71226761 -1337.15222175 3852.74988637 -1347.06212872 3844.64678699 C-1349.38887689 3842.75101679 -1351.7329982 3840.87750334 -1354.08019513 3839.00713855 C-1362.13732116 3832.57486627 -1370.08076702 3826.01661616 -1377.93541974 3819.33941394 C-1381.30562529 3816.47904596 -1384.70768974 3813.6647987 -1388.14269513 3810.88213855 C-1393.84714142 3806.23744425 -1399.39038102 3801.41740115 -1404.93566388 3796.58526355 C-1407.40505971 3794.4349224 -1409.88533847 3792.29883936 -1412.38097638 3790.17901355 C-1419.36441847 3784.24699804 -1426.17557043 3778.17350662 -1432.88097638 3771.92901355 C-1435.7713553 3769.25375078 -1438.71654397 3766.65886901 -1441.69347638 3764.0813573 C-1445.9335939 3760.35228973 -1450.06710075 3756.50372546 -1454.22082013 3752.67901355 C-1455.69184623 3751.32685825 -1457.16715717 3749.97936886 -1458.64269513 3748.63213855 C-1481.45102846 3727.80713855 -1481.45102846 3727.80713855 -1491.36144513 3717.60088855 C-1493.28085397 3715.73133449 -1495.22040754 3714.00115989 -1497.25573224 3712.26470691 C-1502.51999507 3707.67079407 -1507.43303847 3702.73648137 -1512.36535138 3697.7922948 C-1513.36833416 3696.78998774 -1514.37146515 3695.78782899 -1515.37473553 3694.78580981 C-1517.46478651 3692.69722321 -1519.55304401 3690.60686467 -1521.64000958 3688.51519519 C-1524.29467383 3685.85483445 -1526.95380396 3683.19899013 -1529.61430711 3680.54447013 C-1531.68294462 3678.47947249 -1533.74916212 3676.41206651 -1535.81469029 3674.34395915 C-1536.79341518 3673.36457444 -1537.77286319 3672.38591174 -1538.75309438 3671.40803462 C-1543.77142307 3666.39911985 -1548.68875115 3661.3638017 -1553.28391522 3655.96110278 C-1555.79519678 3653.07716162 -1558.53403354 3650.42809012 -1561.26769513 3647.75713855 C-1565.43330128 3643.64370623 -1569.43639578 3639.4797028 -1573.22863263 3635.01495105 C-1574.83710063 3633.17786831 -1576.52608381 3631.46806068 -1578.26769513 3629.75713855 C-1581.21310243 3626.85714502 -1583.92233222 3623.82087424 -1586.61925763 3620.6907323 C-1589.44389632 3617.49118702 -1592.35520096 3614.37660991 -1595.26769513 3611.25713855 C-1599.28374691 3606.9517997 -1603.25898758 3602.62746183 -1607.10363263 3598.1672948 C-1609.08309639 3595.89509344 -1611.11352683 3593.67253983 -1613.14269513 3591.44463855 C-1616.2719234 3587.98183773 -1619.27269862 3584.45034852 -1622.20519513 3580.81963855 C-1625.28106101 3577.01626352 -1628.45522679 3573.35631203 -1631.76769513 3569.75713855 C-1635.80724331 3565.36335307 -1639.61449132 3560.83875031 -1643.36144513 3556.19463855 C-1646.06548283 3552.89360552 -1648.84880745 3549.66948642 -1651.64269513 3546.44463855 C-1656.1530057 3541.22586107 -1660.46608436 3535.88740194 -1664.6929881 3530.43755847 C-1667.79034335 3526.45881936 -1670.98799243 3522.58655754 -1674.26769513 3518.75713855 C-1679.43639489 3512.70994247 -1684.36939943 3506.50106714 -1689.24621075 3500.21709949 C-1690.90142146 3498.08487363 -1692.56089424 3495.95600795 -1694.22082013 3493.82745105 C-1697.7427528 3489.3088986 -1701.25672743 3484.78421406 -1704.76769513 3480.25713855 C-1705.21467755 3479.68141101 -1705.66165997 3479.10568347 -1706.12218732 3478.51250964 C-1718.10933075 3463.06040683 -1729.77142261 3447.36928637 -1741.17052716 3431.47930652 C-1742.79026412 3429.22573792 -1744.41652971 3426.9770311 -1746.04503888 3424.7297948 C-1751.36389163 3417.38952533 -1756.65959809 3410.03385992 -1761.89269513 3402.63213855 C-1762.32267804 3402.02490955 -1762.75266095 3401.41768054 -1763.19567364 3400.79205066 C-1772.83516563 3387.11766942 -1782.17918693 3373.24209056 -1791.45519513 3359.31963855 C-1792.02251355 3358.46852496 -1792.58983197 3357.61741138 -1793.17434186 3356.74050647 C-1802.5395753 3342.68238506 -1811.76008517 3328.54763013 -1820.76769513 3314.25713855 C-1821.97862246 3312.34827793 -1823.18956003 3310.43942381 -1824.40050763 3308.53057605 C-1833.69613566 3293.82001906 -1842.59908268 3278.88577753 -1851.43752545 3263.89806873 C-1853.739491 3259.99486035 -1856.05104818 3256.09763034 -1858.37316388 3252.2063573 C-1865.21342744 3240.72937077 -1871.81443824 3229.13354629 -1878.30675763 3217.4563573 C-1880.50472691 3213.50601932 -1882.72547235 3209.57078213 -1884.97863263 3205.6516698 C-1892.98103598 3191.71195962 -1900.40285074 3177.51858874 -1907.70734662 3163.20579273 C-1910.30937078 3158.12045703 -1912.97198952 3153.06838654 -1915.64269513 3148.0188573 C-1920.74944161 3138.34908574 -1925.69454032 3128.60270939 -1930.58019513 3118.81963855 C-1931.01345105 3117.9528548 -1931.44670697 3117.08607105 -1931.89309186 3116.19302112 C-1938.87630649 3102.20660555 -1945.620181 3088.13578597 -1952.09679669 3073.90655261 C-1953.91838564 3069.91561435 -1955.77736136 3065.94238145 -1957.63488263 3061.96807605 C-1974.59027361 3025.61113568 -1990.23254997 2988.64666961 -2004.76769513 2951.25713855 C-2005.07688885 2950.46235095 -2005.38608258 2949.66756335 -2005.70464581 2948.84869128 C-2015.89923384 2922.61472963 -2025.60744478 2896.2206328 -2034.92321271 2869.66235095 C-2035.72771873 2867.37099733 -2036.53530582 2865.08075524 -2037.343867 2862.79082996 C-2073.12565349 2761.32009217 -2099.86851369 2656.23107192 -2149.95519513 2302.94463855 C-2150.03409985 2301.80914569 -2150.11300458 2300.67365283 -2150.19430035 2299.5037511 C-2150.79499964 2290.7588777 -2151.30566976 2282.01028099 -2151.76769513 2273.25713855 C-2151.81109776 2272.44434688 -2151.8545004 2271.63155521 -2151.89921826 2270.79413348 C-2153.73939639 2236.02857365 -2154.08526932 2201.29395643 -2154.02483368 2166.48944342 C-2154.01728991 2161.64277447 -2154.02002127 2156.79618733 -2154.02843732 2151.94952136 C-2154.08745523 2117.01067482 -2153.61646276 2082.15505052 -2151.76769513 2047.25713855 C-2151.7288168 2046.51004123 -2151.68993848 2045.76294391 -2151.64988202 2044.99320728 C-2151.18312544 2036.03410435 -2150.63479311 2027.08215164 -2150.01769513 2018.13213855 C-2149.93499371 2016.9141759 -2149.8522923 2015.69621326 -2149.76708478 2014.44134265 C-2142.58082927 1909.48586335 -2128.07585046 1804.96423921 -2048.76769513 1492.25713855 C-2048.51759686 1491.48964282 -2048.2674986 1490.7221471 -2048.00982159 1489.93139392 C-2044.33879946 1478.68063758 -2040.58165803 1467.46018866 -2036.76769513 1456.25713855 C-2036.50619672 1455.48748767 -2036.2446983 1454.71783679 -2035.9752757 1453.92486316 C-2007.51485185 1370.2205344 -1972.81418917 1288.63429869 -1905.17687482 1151.89581043 C-1903.53766556 1148.82641097 -1901.90695238 1145.75254675 -1900.27550763 1142.67901355 C-1892.8760052 1128.76105135 -1885.31223579 1114.94960091 -1877.48498029 1101.26641589 C-1875.64703753 1098.04570472 -1873.82203413 1094.81786928 -1871.99816388 1091.5891698 C-1864.11868765 1077.66547282 -1855.99732687 1063.91383232 -1847.64969891 1050.26583606 C-1844.19032688 1044.6095027 -1840.78640854 1038.92723306 -1837.45519513 1033.19463855 C-1832.62688182 1024.91289493 -1827.50793698 1016.82481054 -1822.35070294 1008.74493152 C-1820.78014838 1006.27670958 -1819.2216989 1003.80123515 -1817.66613263 1001.3235448 C-1782.48531037 945.43431436 -1744.04740361 891.5695072 -1703.76769513 839.25713855 C-1703.19760724 838.51673328 -1702.62751935 837.776328 -1702.04015607 837.01348621 C-1694.22282418 826.87627052 -1686.26044295 816.87261193 -1678.15734357 806.96270496 C-1676.26157337 804.63595679 -1674.38805992 802.29183548 -1672.51769513 799.94463855 C-1666.08542285 791.88751252 -1659.52717274 783.94406666 -1652.84997052 776.08941394 C-1649.98960254 772.71920839 -1647.17535528 769.31714393 -1644.39269513 765.88213855 C-1639.74800083 760.17769226 -1634.92795773 754.63445266 -1630.09582013 749.0891698 C-1627.94547898 746.61977397 -1625.80939593 744.13949521 -1623.68957013 741.6438573 C-1617.75755461 734.66041521 -1611.6840632 727.84926325 -1605.43957013 721.1438573 C-1602.76430736 718.25347838 -1600.16942559 715.30828971 -1597.59191388 712.3313573 C-1593.86284631 708.09123978 -1590.01428204 703.95773293 -1586.18957013 699.80401355 C-1584.83741482 698.33298745 -1583.48992544 696.8576765 -1582.14269513 695.38213855 C-1561.31769513 672.57380522 -1561.31769513 672.57380522 -1551.11144513 662.66338855 C-1549.24189107 660.74397971 -1547.51171647 658.80442614 -1545.77526349 656.76910144 C-1541.18135065 651.5048386 -1536.24703795 646.5917952 -1531.30285138 641.6594823 C-1530.30054432 640.65649952 -1529.29838557 639.65336852 -1528.29636639 638.65009815 C-1526.20777979 636.56004717 -1524.11742125 634.47178967 -1522.02575177 632.3848241 C-1519.36539103 629.73015985 -1516.70954671 627.07102971 -1514.05502671 624.41052657 C-1511.99002907 622.34188906 -1509.92262309 620.27567156 -1507.85451573 618.21014339 C-1506.87513102 617.2314185 -1505.89646832 616.25197049 -1504.9185912 615.2717393 C-1499.90967643 610.25341061 -1494.87435828 605.33608253 -1489.47165936 600.74091846 C-1486.5877182 598.2296369 -1483.9386467 595.49080014 -1481.26769513 592.75713855 C-1477.15426281 588.5915324 -1472.99025938 584.5884379 -1468.52550763 580.79620105 C-1466.68842489 579.18773305 -1464.97861726 577.49874987 -1463.26769513 575.75713855 C-1460.3677016 572.81173125 -1457.33143081 570.10250146 -1454.20128888 567.40557605 C-1451.0017436 564.58093736 -1447.88716649 561.66963271 -1444.76769513 558.75713855 C-1440.46235627 554.74108676 -1436.13801841 550.76584609 -1431.67785138 546.92120105 C-1429.40565002 544.94173729 -1427.18309641 542.91130685 -1424.95519513 540.88213855 C-1421.49239431 537.75291028 -1417.96090509 534.75213506 -1414.33019513 531.81963855 C-1410.5268201 528.74377267 -1406.86686861 525.56960689 -1403.26769513 522.25713855 C-1398.87390965 518.21759037 -1394.34930689 514.41034236 -1389.70519513 510.66338855 C-1386.4041621 507.95935085 -1383.18004299 505.17602623 -1379.95519513 502.38213855 C-1374.73641765 497.87182798 -1369.39795852 493.55874932 -1363.94811505 489.33184558 C-1359.96937594 486.23449033 -1356.09711412 483.03684125 -1352.26769513 479.75713855 C-1346.22049905 474.58843879 -1340.01162372 469.65543425 -1333.72765607 464.77862293 C-1331.59543021 463.12341222 -1329.46656452 461.46393944 -1327.33800763 459.80401355 C-1322.81945517 456.28208088 -1318.29477064 452.76810624 -1313.76769513 449.25713855 C-1313.19196759 448.81015613 -1312.61624005 448.36317371 -1312.02306622 447.90264636 C-1296.57096341 435.91550293 -1280.87984295 424.25341107 -1264.9898631 412.85430652 C-1262.73629449 411.23456956 -1260.48758768 409.60830396 -1258.24035138 407.9797948 C-1250.90008191 402.66094205 -1243.5444165 397.36523559 -1236.14269513 392.13213855 C-1235.23185162 391.48716419 -1235.23185162 391.48716419 -1234.30260724 390.82916003 C-1220.628226 381.18966804 -1206.75264714 371.84564675 -1192.83019513 362.56963855 C-1191.97908154 362.00232013 -1191.12796796 361.43500171 -1190.25106305 360.85049182 C-1176.19294164 351.48525838 -1162.05818671 342.26474851 -1147.76769513 333.25713855 C-1145.85883451 332.04621122 -1143.94998039 330.83527365 -1142.04113263 329.62432605 C-1127.33057564 320.32869802 -1112.39633411 311.425751 -1097.4086253 302.58730823 C-1093.50541693 300.28534268 -1089.60818692 297.9737855 -1085.71691388 295.6516698 C-1074.23992735 288.81140624 -1062.64410287 282.21039544 -1050.96691388 275.71807605 C-1047.01657589 273.52010677 -1043.08133871 271.29936133 -1039.16222638 269.04620105 C-1025.2225162 261.0437977 -1011.02914532 253.62198293 -996.7163493 246.31748706 C-991.63101361 243.7154629 -986.57894312 241.05284416 -981.52941388 238.38213855 C-971.85964231 233.27539207 -962.11326597 228.33029336 -952.33019513 223.44463855 C-951.46341138 223.01138263 -950.59662762 222.57812671 -949.7035777 222.13174182 C-935.71716213 215.14852719 -921.64634254 208.40465268 -907.41710919 201.92803699 C-903.42617093 200.10644804 -899.45293802 198.24747232 -895.47863263 196.38995105 C-859.12169226 179.43456007 -822.15722619 163.79228371 -784.76769513 149.25713855 C-783.57551373 148.79334796 -783.57551373 148.79334796 -782.35924786 148.32018787 C-756.12528621 138.12559983 -729.73118938 128.4173889 -703.17290753 119.10162097 C-700.88155391 118.29711495 -698.59131182 117.48952786 -696.30138654 116.68096668 C-594.83064875 80.89918019 -489.7416285 54.15631999 -136.45519513 4.06963855 C-135.31970227 3.99073383 -134.18420941 3.9118291 -133.01430768 3.83053333 C-124.26943428 3.22983404 -115.52083757 2.71916392 -106.76769513 2.25713855 C-105.95490346 2.21373592 -105.14211179 2.17033328 -104.30469006 2.12561542 C-69.53913023 0.28543729 -34.80451301 -0.06043565 0 0 Z " fill="#2F41DD" transform="translate(2153.7676951289177,-0.25713855028152466)"/>
<path d="M0 0 C7.09149269 4.30422773 10.75779891 9.68118325 15.12109375 16.61328125 C15.76892822 17.62471191 16.4167627 18.63614258 17.08422852 19.67822266 C18.45477272 21.82020204 19.82097672 23.96496392 21.18310547 26.11230469 C23.18525944 29.26741502 25.19958697 32.41434729 27.21875 35.55859375 C30.55612975 40.75784545 33.88378922 45.96322427 37.20800781 51.17089844 C40.65512152 56.57033051 44.10639738 61.9670978 47.55859375 67.36328125 C48.22995361 68.41281982 48.90131348 69.4623584 49.59301758 70.54370117 C53.76268254 77.05793389 57.95470373 83.55708692 62.1652832 90.04492188 C66.50393228 96.740458 70.77776524 103.476913 75.05517578 110.21166992 C78.59363365 115.77881136 82.15371117 121.33079889 85.74609375 126.86328125 C89.95105341 133.33916867 94.10646038 139.84545364 98.24609375 146.36328125 C102.34572914 152.81747426 106.45855083 159.26196299 110.62109375 165.67578125 C117.18400934 175.78948701 123.67148342 185.95136455 130.16552734 196.109375 C133.52395917 201.36180159 136.88509604 206.61249633 140.24609375 211.86328125 C144.30611049 218.20612243 148.36542179 224.54941032 152.421875 230.89453125 C161.05491761 244.39760565 161.05491761 244.39760565 169.74609375 257.86328125 C176.26571908 267.91550175 182.71195739 278.01467412 189.16552734 288.109375 C192.52395917 293.36180159 195.88509604 298.61249633 199.24609375 303.86328125 C203.30611049 310.20612243 207.36542179 316.54941032 211.421875 322.89453125 C220.05491761 336.39760565 220.05491761 336.39760565 228.74609375 349.86328125 C236.67427292 362.0872667 244.50123188 374.37642813 252.34863281 386.65234375 C259.26226161 397.46638188 266.17784841 408.27839341 273.1652832 419.04492188 C277.50393228 425.740458 281.77776524 432.476913 286.05517578 439.21166992 C289.59363365 444.77881136 293.15371117 450.33079889 296.74609375 455.86328125 C300.95105341 462.33916867 305.10646038 468.84545364 309.24609375 475.36328125 C313.34572914 481.81747426 317.45855083 488.26196299 321.62109375 494.67578125 C328.18400934 504.78948701 334.67148342 514.95136455 341.16552734 525.109375 C344.52395917 530.36180159 347.88509604 535.61249633 351.24609375 540.86328125 C355.30611049 547.20612243 359.36542179 553.54941032 363.421875 559.89453125 C372.05491761 573.39760565 372.05491761 573.39760565 380.74609375 586.86328125 C387.2628473 596.91107392 393.70609895 607.00588148 400.15673828 617.09619141 C402.21518653 620.31495215 404.27524744 623.53267412 406.3359375 626.75 C418.54230898 645.80837371 430.70470191 664.8938467 442.77832031 684.03662109 C445.26592732 687.9798837 447.75615789 691.92148893 450.24609375 695.86328125 C451.24610599 697.44660685 452.246106 699.02994018 453.24609375 700.61328125 C453.74109375 701.39703125 454.23609375 702.18078125 454.74609375 702.98828125 C476.24609375 737.02994792 497.74609375 771.07161458 519.24609375 805.11328125 C519.74085205 805.89662842 520.23561035 806.67997559 520.74536133 807.48706055 C521.74787618 809.07441651 522.75031729 810.66181904 523.75268555 812.24926758 C526.21361338 816.1464352 528.67571087 820.04285226 531.140625 823.9375 C536.66263076 832.66598138 542.15440979 841.41253395 547.62109375 850.17578125 C553.6629636 859.85852232 559.76929364 869.49841572 565.90625 879.12109375 C570.55460897 886.41090114 575.16609697 893.72392096 579.77832031 901.03662109 C582.26592732 904.9798837 584.75615789 908.92148893 587.24609375 912.86328125 C588.24610599 914.44660685 589.246106 916.02994018 590.24609375 917.61328125 C590.74109375 918.39703125 591.23609375 919.18078125 591.74609375 919.98828125 C613.24609375 954.02994792 634.74609375 988.07161458 656.24609375 1022.11328125 C656.74085205 1022.89662842 657.23561035 1023.67997559 657.74536133 1024.48706055 C658.74787618 1026.07441651 659.75031729 1027.66181904 660.75268555 1029.24926758 C663.21361338 1033.1464352 665.67571087 1037.04285226 668.140625 1040.9375 C673.66263076 1049.66598138 679.15440979 1058.41253395 684.62109375 1067.17578125 C690.6629636 1076.85852232 696.76929364 1086.49841572 702.90625 1096.12109375 C707.55460897 1103.41090114 712.16609697 1110.72392096 716.77832031 1118.03662109 C719.26592732 1121.9798837 721.75615789 1125.92148893 724.24609375 1129.86328125 C725.24610599 1131.44660685 726.246106 1133.02994018 727.24609375 1134.61328125 C727.74109375 1135.39703125 728.23609375 1136.18078125 728.74609375 1136.98828125 C750.24609375 1171.02994792 771.74609375 1205.07161458 793.24609375 1239.11328125 C793.74085205 1239.89662842 794.23561035 1240.67997559 794.74536133 1241.48706055 C795.74787618 1243.07441651 796.75031729 1244.66181904 797.75268555 1246.24926758 C800.21361338 1250.1464352 802.67571087 1254.04285226 805.140625 1257.9375 C810.66263076 1266.66598138 816.15440979 1275.41253395 821.62109375 1284.17578125 C827.6629636 1293.85852232 833.76929364 1303.49841572 839.90625 1313.12109375 C844.55460897 1320.41090114 849.16609697 1327.72392096 853.77832031 1335.03662109 C856.26592732 1338.9798837 858.75615789 1342.92148893 861.24609375 1346.86328125 C862.24610599 1348.44660685 863.246106 1350.02994018 864.24609375 1351.61328125 C864.74109375 1352.39703125 865.23609375 1353.18078125 865.74609375 1353.98828125 C887.24609375 1388.02994792 908.74609375 1422.07161458 930.24609375 1456.11328125 C930.74085205 1456.89662842 931.23561035 1457.67997559 931.74536133 1458.48706055 C932.74787618 1460.07441651 933.75031729 1461.66181904 934.75268555 1463.24926758 C937.21361338 1467.1464352 939.67571087 1471.04285226 942.140625 1474.9375 C947.66263076 1483.66598138 953.15440979 1492.41253395 958.62109375 1501.17578125 C963.5232011 1509.03193132 968.4568356 1516.86670486 973.43359375 1524.67578125 C974.0064209 1525.57578857 974.57924805 1526.4757959 975.16943359 1527.40307617 C977.96198883 1531.78847817 980.76304529 1536.16808399 983.578125 1540.5390625 C986.51837276 1545.11644805 989.40312319 1549.72492763 992.24609375 1554.36328125 C992.931875 1555.47058594 993.61765625 1556.57789062 994.32421875 1557.71875 C999.00485062 1565.99734422 999.76795338 1573.91985219 997.578125 1583.19140625 C994.70145705 1591.3817447 988.97729965 1598.35450782 981.24609375 1602.36328125 C973.19291698 1605.40067885 964.95073646 1607.08569342 956.5 1608.58203125 C946.96440446 1610.29029749 937.49752974 1612.49908847 928.12109375 1614.92578125 C922.98515742 1616.23798476 917.81034392 1617.22151242 912.59814453 1618.16821289 C902.36256378 1620.04695677 892.19541553 1622.31847033 882.12109375 1624.92578125 C876.97720104 1626.24001757 871.79423778 1627.22443082 866.57397461 1628.17260742 C859.25123757 1629.51658343 852.004342 1631.16500985 844.74316406 1632.80419922 C840.18631548 1633.8244557 835.62222959 1634.81141052 831.05859375 1635.80078125 C830.09107178 1636.0107373 829.1235498 1636.22069336 828.12670898 1636.43701172 C826.15172085 1636.86552687 824.17670442 1637.29391162 822.20166016 1637.72216797 C817.38276072 1638.76747029 812.56445261 1639.81549049 807.74609375 1640.86328125 C805.82943002 1641.27996144 803.91276335 1641.69662809 801.99609375 1642.11328125 C800.57296875 1642.42265625 800.57296875 1642.42265625 799.12109375 1642.73828125 C767.49609375 1649.61328125 767.49609375 1649.61328125 764.62060547 1650.23828125 C762.70550761 1650.65467759 760.79046843 1651.07134391 758.87548828 1651.48828125 C754.06026589 1652.53631469 749.24408881 1653.57951764 744.42578125 1654.61328125 C735.02610993 1656.63510628 725.65242414 1658.72127315 716.30859375 1660.98828125 C708.97505867 1662.76542834 701.64376454 1664.28023168 694.21875 1665.6171875 C684.78220215 1667.34781477 675.40732972 1669.52243292 666.12109375 1671.92578125 C660.98515742 1673.23798476 655.81034392 1674.22151242 650.59814453 1675.16821289 C640.36256378 1677.04695677 630.19541553 1679.31847033 620.12109375 1681.92578125 C589.16959749 1689.71716758 589.16959749 1689.71716758 575.90234375 1682.17578125 C563.01863177 1673.38454249 559.13663357 1655.66671705 554.01535034 1641.65200806 C552.17971716 1636.62964224 550.33070003 1631.61219279 548.484375 1626.59375 C548.07905045 1625.49093185 547.67372589 1624.38811371 547.25611877 1623.25187683 C541.88422403 1608.64320108 536.45714995 1594.05498895 531.03443146 1579.46512222 C529.89784631 1576.4069233 528.76158037 1573.34860583 527.62532043 1570.29028606 C518.84032484 1546.64494432 510.04691009 1523.00273902 501.24609375 1499.36328125 C498.78744866 1492.7592306 496.32903419 1486.1550942 493.87109375 1479.55078125 C493.55630066 1478.7049649 493.24150757 1477.85914856 492.91717529 1476.98770142 C485.7317421 1457.6795896 478.5605103 1438.36620368 471.38819885 1419.05321503 C464.47042731 1400.42569257 457.55200498 1381.79841997 450.62109375 1363.17578125 C450.305495 1362.32778961 449.98989624 1361.47979797 449.66473389 1360.60610962 C447.5255036 1354.85838236 445.38586083 1349.11080869 443.24609375 1343.36328125 C440.78744866 1336.7592306 438.32903419 1330.1550942 435.87109375 1323.55078125 C435.55630066 1322.7049649 435.24150757 1321.85914856 434.91717529 1320.98770142 C427.44224053 1300.90166454 419.98249224 1280.80998645 412.52130127 1260.71884155 C406.10140232 1243.43172812 399.67999091 1226.14519108 393.24609375 1208.86328125 C386.52409034 1190.80749734 379.81579978 1172.74662987 373.10845184 1154.6853981 C361.87194442 1124.42792417 361.87194442 1124.42792417 350.62109375 1094.17578125 C350.305495 1093.32778961 349.98989624 1092.47979797 349.66473389 1091.60610962 C347.5255036 1085.85838236 345.38586083 1080.11080869 343.24609375 1074.36328125 C340.78744866 1067.7592306 338.32903419 1061.1550942 335.87109375 1054.55078125 C335.55630066 1053.7049649 335.24150757 1052.85914856 334.91717529 1051.98770142 C328.87550088 1035.75300521 322.84397392 1019.51454369 316.81335449 1003.27573872 C314.82353944 997.91781597 312.83326099 992.56006552 310.84277344 987.20239258 C309.72979494 984.20655143 308.61684324 981.21070032 307.50390625 978.21484375 C307.09600105 977.11684857 307.09600105 977.11684857 306.67985535 975.99667168 C303.59794029 967.70044661 300.51863959 959.40326847 297.44573975 951.10369873 C295.99767109 947.19316459 294.54781636 943.28329412 293.09765625 939.37353516 C292.46423427 937.66424594 291.83169358 935.95462978 291.20019531 934.24462891 C287.90330404 925.31752167 284.53515692 916.41893498 281.0625 907.55859375 C280.74042572 906.72145844 280.41835144 905.88432312 280.08651733 905.02182007 C276.79543979 896.71277934 272.70586345 890.71831956 264.43359375 886.86328125 C263.04866635 886.33382228 261.65352151 885.82964784 260.24609375 885.36328125 C259.25609375 885.03328125 258.26609375 884.70328125 257.24609375 884.36328125 C247.39859775 883.32739286 239.35510738 884.40968073 231.24609375 890.36328125 C225.54537646 895.70860663 222.24272117 902.50780452 218.68359375 909.36328125 C217.44086505 911.7159706 216.19640862 914.06765099 214.94921875 916.41796875 C214.48058662 917.30378128 214.48058662 917.30378128 214.00248718 918.20748901 C211.08928728 923.69856873 208.02600419 929.09683432 204.93359375 934.48828125 C199.28895348 944.36661973 193.95044069 954.39209171 188.6434021 964.45391846 C183.64932118 973.91654803 178.51981411 983.27832981 173.19921875 992.5625 C168.54020121 1000.73884513 164.13570366 1009.04050318 159.74609375 1017.36328125 C154.38665074 1027.52488006 148.9121302 1037.59375806 143.19921875 1047.5625 C138.54020121 1055.73884513 134.13570366 1064.04050318 129.74609375 1072.36328125 C124.38665074 1082.52488006 118.9121302 1092.59375806 113.19921875 1102.5625 C108.54020121 1110.73884513 104.13570366 1119.04050318 99.74609375 1127.36328125 C94.38665074 1137.52488006 88.9121302 1147.59375806 83.19921875 1157.5625 C78.54020121 1165.73884513 74.13570366 1174.04050318 69.74609375 1182.36328125 C64.38665074 1192.52488006 58.9121302 1202.59375806 53.19921875 1212.5625 C48.54020121 1220.73884513 44.13570366 1229.04050318 39.74609375 1237.36328125 C34.38665074 1247.52488006 28.9121302 1257.59375806 23.19921875 1267.5625 C18.54020121 1275.73884513 14.13570366 1284.04050318 9.74609375 1292.36328125 C4.38665074 1302.52488006 -1.0878698 1312.59375806 -6.80078125 1322.5625 C-11.45979879 1330.73884513 -15.86429634 1339.04050318 -20.25390625 1347.36328125 C-25.61334926 1357.52488006 -31.0878698 1367.59375806 -36.80078125 1377.5625 C-41.45979879 1385.73884513 -45.86429634 1394.04050318 -50.25390625 1402.36328125 C-55.61334926 1412.52488006 -61.0878698 1422.59375806 -66.80078125 1432.5625 C-71.45979879 1440.73884513 -75.86429634 1449.04050318 -80.25390625 1457.36328125 C-85.61334926 1467.52488006 -91.0878698 1477.59375806 -96.80078125 1487.5625 C-101.45979879 1495.73884513 -105.86429634 1504.04050318 -110.25390625 1512.36328125 C-115.61334926 1522.52488006 -121.0878698 1532.59375806 -126.80078125 1542.5625 C-131.45979879 1550.73884513 -135.86429634 1559.04050318 -140.25390625 1567.36328125 C-145.61334926 1577.52488006 -151.0878698 1587.59375806 -156.80078125 1597.5625 C-161.45979965 1605.73884665 -165.8642774 1614.04051088 -170.25390625 1622.36328125 C-175.8417961 1632.95781435 -181.53372707 1643.4731726 -187.49291992 1653.86547852 C-189.67459905 1657.67097561 -191.84147576 1661.46728642 -193.828125 1665.37890625 C-199.02469923 1675.60856698 -204.6103142 1682.65573277 -215.75390625 1686.36328125 C-216.62789062 1686.65912109 -216.62789062 1686.65912109 -217.51953125 1686.9609375 C-223.57655942 1688.05162614 -229.30951769 1687.24454293 -235.265625 1685.96484375 C-235.97453384 1685.81466293 -236.68344269 1685.66448212 -237.41383362 1685.50975037 C-239.75817001 1685.0106721 -242.09972417 1684.49965695 -244.44140625 1683.98828125 C-246.12130492 1683.62764075 -247.80132092 1683.26754644 -249.48144531 1682.90795898 C-264.27059027 1679.73069893 -279.0333736 1676.43100162 -293.7956543 1673.1315918 C-304.96536177 1670.63686794 -316.14381347 1668.19216455 -327.33886719 1665.81387329 C-348.06400454 1661.41067204 -368.75736983 1656.86494556 -389.44775391 1652.30177689 C-391.95951427 1651.74806732 -394.47143184 1651.19507663 -396.98339844 1650.64230347 C-414.09295822 1646.87630943 -431.18513229 1643.05738444 -448.2388916 1639.04522705 C-464.41471521 1635.25117929 -480.63880589 1631.67136538 -496.85945511 1628.07483673 C-499.53955836 1627.48037339 -502.21949387 1626.88515924 -504.89938354 1626.28973389 C-526.7558391 1621.43417657 -548.61401482 1616.58964952 -570.52832031 1612.00048828 C-606.20510605 1604.50459869 -606.20510605 1604.50459869 -615.30078125 1592.28515625 C-619.89400293 1584.69859909 -620.12884183 1575.95353195 -618.75390625 1567.36328125 C-616.34312495 1559.45120577 -611.67068883 1553.68916665 -606.03515625 1547.78125 C-603.84131601 1545.45592961 -601.85340155 1543.06340744 -599.87890625 1540.55078125 C-596.75096137 1536.58165597 -593.53100871 1532.70885496 -590.25390625 1528.86328125 C-586.42854374 1524.36846408 -582.69172544 1519.81989546 -579.0234375 1515.1953125 C-574.28565442 1509.28327681 -569.43705261 1503.4609567 -564.61376953 1497.61865234 C-562.78132752 1495.39653377 -560.9525229 1493.17147774 -559.125 1490.9453125 C-553.75157645 1484.40241365 -548.36504545 1477.87463699 -542.87890625 1471.42578125 C-539.18397627 1467.08190204 -535.57988161 1462.67816311 -532.03515625 1458.2109375 C-524.79106918 1449.16823292 -517.38609042 1440.25096999 -509.87890625 1431.42578125 C-506.17976241 1427.07691261 -502.57145609 1422.6682728 -499.0234375 1418.1953125 C-494.28565442 1412.28327681 -489.43705261 1406.4609567 -484.61376953 1400.61865234 C-482.78132752 1398.39653377 -480.9525229 1396.17147774 -479.125 1393.9453125 C-473.75157645 1387.40241365 -468.36504545 1380.87463699 -462.87890625 1374.42578125 C-459.17974575 1370.07692851 -455.57145531 1365.66827182 -452.0234375 1361.1953125 C-447.28565442 1355.28327681 -442.43705261 1349.4609567 -437.61376953 1343.61865234 C-435.78132752 1341.39653377 -433.9525229 1339.17147774 -432.125 1336.9453125 C-426.75157645 1330.40241365 -421.36504545 1323.87463699 -415.87890625 1317.42578125 C-412.18397627 1313.08190204 -408.57988161 1308.67816311 -405.03515625 1304.2109375 C-397.79106918 1295.16823292 -390.38609042 1286.25096999 -382.87890625 1277.42578125 C-379.17976241 1273.07691261 -375.57145609 1268.6682728 -372.0234375 1264.1953125 C-367.28565442 1258.28327681 -362.43705261 1252.4609567 -357.61376953 1246.61865234 C-355.78132752 1244.39653377 -353.9525229 1242.17147774 -352.125 1239.9453125 C-346.75157645 1233.40241365 -341.36504545 1226.87463699 -335.87890625 1220.42578125 C-332.18397627 1216.08190204 -328.57988161 1211.67816311 -325.03515625 1207.2109375 C-317.79106918 1198.16823292 -310.38609042 1189.25096999 -302.87890625 1180.42578125 C-299.17976241 1176.07691261 -295.57145609 1171.6682728 -292.0234375 1167.1953125 C-287.28565442 1161.28327681 -282.43705261 1155.4609567 -277.61376953 1149.61865234 C-275.78132752 1147.39653377 -273.9525229 1145.17147774 -272.125 1142.9453125 C-266.75157645 1136.40241365 -261.36504545 1129.87463699 -255.87890625 1123.42578125 C-252.17974575 1119.07692851 -248.57145531 1114.66827182 -245.0234375 1110.1953125 C-240.28565442 1104.28327681 -235.43705261 1098.4609567 -230.61376953 1092.61865234 C-228.78132752 1090.39653377 -226.9525229 1088.17147774 -225.125 1085.9453125 C-219.75157645 1079.40241365 -214.36504545 1072.87463699 -208.87890625 1066.42578125 C-205.18397627 1062.08190204 -201.57988161 1057.67816311 -198.03515625 1053.2109375 C-190.79106918 1044.16823292 -183.38609042 1035.25096999 -175.87890625 1026.42578125 C-172.17976241 1022.07691261 -168.57145609 1017.6682728 -165.0234375 1013.1953125 C-160.28565442 1007.28327681 -155.43705261 1001.4609567 -150.61376953 995.61865234 C-148.78132752 993.39653377 -146.9525229 991.17147774 -145.125 988.9453125 C-139.75157645 982.40241365 -134.36504545 975.87463699 -128.87890625 969.42578125 C-125.17974575 965.07692851 -121.57145531 960.66827182 -118.0234375 956.1953125 C-113.28565442 950.28327681 -108.43705261 944.4609567 -103.61376953 938.61865234 C-101.78132752 936.39653377 -99.9525229 934.17147774 -98.125 931.9453125 C-92.75157645 925.40241365 -87.36504545 918.87463699 -81.87890625 912.42578125 C-78.18397627 908.08190204 -74.57988161 903.67816311 -71.03515625 899.2109375 C-63.79106918 890.16823292 -56.38609042 881.25096999 -48.87890625 872.42578125 C-45.17976241 868.07691261 -41.57145609 863.6682728 -38.0234375 859.1953125 C-33.28565442 853.28327681 -28.43705261 847.4609567 -23.61376953 841.61865234 C-21.78132752 839.39653377 -19.9525229 837.17147774 -18.125 834.9453125 C-12.75157194 828.40240815 -7.36479805 821.87485223 -1.87890625 815.42578125 C1.86680168 811.0190266 5.55312014 806.57442064 9.1328125 802.03125 C10.76226448 799.97410452 12.41136838 797.94063042 14.078125 795.9140625 C15.07183163 794.6889781 16.06532229 793.4637185 17.05859375 792.23828125 C17.52716797 791.67633057 17.99574219 791.11437988 18.47851562 790.53540039 C23.71332258 784.01935359 26.67339897 776.09773919 26.51977539 767.67163086 C25.39660482 758.19832333 19.86357926 749.81730724 14.99609375 741.86328125 C14.28707998 740.68867629 13.5790939 739.51345046 12.87207031 738.33764648 C11.40427596 735.89834323 9.93214166 733.46174074 8.45703125 731.02685547 C4.92495092 725.18663506 1.46645152 719.30279042 -2.00390625 713.42578125 C-9.91838372 700.06433143 -17.86771347 686.72523049 -25.95703125 673.46875 C-27.45229912 671.01721714 -28.94709307 668.56539615 -30.44140625 666.11328125 C-30.81070251 665.50734131 -31.17999878 664.90140137 -31.56048584 664.27709961 C-36.13251287 656.76805505 -40.61167135 649.2234041 -44.86499023 641.52880859 C-47.58616865 636.6141151 -50.50273567 631.84531895 -53.47265625 627.078125 C-56.38983176 622.3628173 -59.19015094 617.57823464 -62.00390625 612.80078125 C-69.57071534 599.96329824 -77.2063683 587.16955938 -84.96875 574.44921875 C-86.46010089 572.00418978 -87.95099815 569.55888502 -89.44140625 567.11328125 C-89.8104306 566.50779449 -90.17945496 565.90230774 -90.55966187 565.2784729 C-95.13196247 557.76896985 -99.61141304 550.22387142 -103.86499023 542.52880859 C-106.58616865 537.6141151 -109.50273567 532.84531895 -112.47265625 528.078125 C-115.38982973 523.36282059 -118.19027814 518.57830612 -121.00390625 513.80078125 C-125.16264989 506.74150687 -129.341643 499.6957524 -133.56640625 492.67578125 C-138.32975273 484.7584349 -143.04851023 476.81515697 -147.75390625 468.86328125 C-154.37794115 457.67077873 -161.0495484 446.50783353 -167.75390625 435.36328125 C-178.15497894 418.06968135 -188.47946387 400.7323926 -198.75390625 383.36328125 C-214.73296977 356.34264494 -214.73296977 356.34264494 -230.95703125 329.46875 C-232.45229912 327.01721714 -233.94709307 324.56539615 -235.44140625 322.11328125 C-235.99535065 321.20437134 -235.99535065 321.20437134 -236.56048584 320.27709961 C-241.13251287 312.76805505 -245.61167135 305.2234041 -249.86499023 297.52880859 C-252.58616865 292.6141151 -255.50273567 287.84531895 -258.47265625 283.078125 C-261.38983176 278.3628173 -264.19015094 273.57823464 -267.00390625 268.80078125 C-274.57071534 255.96329824 -282.2063683 243.16955938 -289.96875 230.44921875 C-291.46010089 228.00418978 -292.95099815 225.55888502 -294.44140625 223.11328125 C-294.8104306 222.50779449 -295.17945496 221.90230774 -295.55966187 221.2784729 C-300.13196247 213.76896985 -304.61141304 206.22387142 -308.86499023 198.52880859 C-311.58616865 193.6141151 -314.50273567 188.84531895 -317.47265625 184.078125 C-320.96709667 178.42972923 -324.30713804 172.68781969 -327.67236328 166.96191406 C-330.46603528 162.21421154 -333.27998827 157.48184562 -336.15234375 152.78125 C-336.6947168 151.89058838 -337.23708984 150.99992676 -337.79589844 150.08227539 C-338.81956929 148.4048382 -339.84851977 146.73060661 -340.88378906 145.06030273 C-346.3437585 136.0937313 -349.11999925 128.37523208 -347.3203125 117.8203125 C-344.95856498 108.35865317 -339.47181922 102.02402449 -331.39990234 96.81347656 C-326.56392841 94.16301659 -321.3942711 92.68470427 -316.12890625 91.11328125 C-314.27086561 90.53805595 -312.41283558 89.96279452 -310.55532837 89.385849 C-308.6084022 88.78271055 -306.65972235 88.18548088 -304.7109375 87.58837891 C-300.77570731 86.37676396 -296.856871 85.11761737 -292.94140625 83.84375 C-292.29695557 83.63409103 -291.65250488 83.42443207 -290.98852539 83.2084198 C-289.68664271 82.78459808 -288.38480348 82.36064287 -287.08300781 81.93655396 C-276.79345882 78.58881885 -266.4790072 75.33211841 -256.12890625 72.17578125 C-247.73241486 69.61427913 -239.38363833 66.94798508 -231.06469727 64.14550781 C-223.25001165 61.51632282 -215.41252905 58.95932681 -207.56640625 56.42578125 C-206.90502655 56.21216949 -206.24364685 55.99855774 -205.56222534 55.7784729 C-196.44019181 52.83596659 -187.29688521 49.97245428 -178.12890625 47.17578125 C-169.73243722 44.61420024 -161.38364086 41.94798593 -153.06469727 39.14550781 C-145.25001165 36.51632282 -137.41252905 33.95932681 -129.56640625 31.42578125 C-128.90502655 31.21216949 -128.24364685 30.99855774 -127.56222534 30.7784729 C-118.44019181 27.83596659 -109.29688521 24.97245428 -100.12890625 22.17578125 C-91.74200738 19.61711989 -83.40191175 16.95610818 -75.09326172 14.15429688 C-67.00106221 11.42973341 -58.88000412 8.79699385 -50.75390625 6.17578125 C-50.10281891 5.96536194 -49.45173157 5.75494263 -48.78091431 5.53814697 C-45.64403505 4.52464408 -42.50554259 3.5166558 -39.36450195 2.51611328 C-36.97147834 1.7520415 -34.58189958 0.97708925 -32.19604492 0.19091797 C-21.20894105 -3.35544738 -10.95664359 -4.74592583 0 0 Z " fill="#FEFEFE" transform="translate(2034.75390625,1823.63671875)"/>
<path d="M0 0 C6.42505305 4.94652984 11.00964833 10.85626679 15.43359375 17.58984375 C16.5669642 19.28132078 17.70243664 20.97139097 18.83984375 22.66015625 C19.41347656 23.51254883 19.98710937 24.36494141 20.578125 25.24316406 C23.28516096 29.20747462 26.10470073 33.08699264 28.93359375 36.96484375 C33.4091478 43.11531881 37.78655503 49.31972239 42.0769043 55.60058594 C50.5102829 67.94181948 59.14614178 80.14416308 67.77368164 92.35009766 C74.58331132 101.98893023 81.33704166 111.66699417 88.09960938 121.33886719 C94.15347895 129.99623149 100.21088896 138.65077738 106.30859375 147.27734375 C113.60903063 157.6054435 120.85217891 167.97353998 128.09960938 178.33886719 C134.15347895 186.99623149 140.21088896 195.65077738 146.30859375 204.27734375 C153.60903063 214.6054435 160.85217891 224.97353998 168.09960938 235.33886719 C174.15347895 243.99623149 180.21088896 252.65077738 186.30859375 261.27734375 C193.60903063 271.6054435 200.85217891 281.97353998 208.09960938 292.33886719 C214.15347895 300.99623149 220.21088896 309.65077738 226.30859375 318.27734375 C230.61572327 324.37074117 234.90559205 330.47596006 239.18359375 336.58984375 C240.05491943 337.83495728 240.05491943 337.83495728 240.94384766 339.10522461 C243.97420847 343.43687767 247.00195261 347.7703433 250.02734375 352.10546875 C252.94912366 356.29139097 255.88029565 360.47060458 258.81640625 364.64648438 C260.11529615 366.50131276 261.40180775 368.36381187 262.68359375 370.23046875 C268.26539025 378.21069343 273.88156933 384.55290465 283.30859375 387.77734375 C297.59322538 390.0742644 308.81570188 385.0981959 321.62109375 379.40234375 C323.643754 378.53053295 325.66787656 377.66210789 327.69335938 376.796875 C331.86280252 375.01343368 336.02621469 373.2168966 340.18603516 371.41113281 C348.6071131 367.77045557 357.1044287 364.32061468 365.60629272 360.8739624 C370.15642334 359.02747748 374.70124562 357.16803473 379.24609375 355.30859375 C380.15195724 354.93813934 381.05782074 354.56768494 381.99113464 354.18600464 C392.44119193 349.90953159 402.87482605 345.59336941 413.30859375 341.27734375 C429.20350917 334.70226322 445.11379911 328.16620174 461.03808594 321.66259766 C475.142347 315.90138269 489.23003608 310.10107089 503.30859375 304.27734375 C519.20350917 297.70226322 535.11379911 291.16620174 551.03808594 284.66259766 C565.142347 278.90138269 579.23003608 273.10107089 593.30859375 267.27734375 C609.20350917 260.70226322 625.11379911 254.16620174 641.03808594 247.66259766 C655.142347 241.90138269 669.23003608 236.10107089 683.30859375 230.27734375 C699.20350917 223.70226322 715.11379911 217.16620174 731.03808594 210.66259766 C745.14234784 204.90138234 759.22996924 199.10091061 773.30859375 193.27734375 C793.16742998 185.06352699 813.04873693 176.90581472 832.94639587 168.78651428 C837.58833983 166.89148365 842.22737556 164.98967152 846.86222839 163.07736206 C848.81230543 162.27288565 850.76307815 161.4701231 852.71411133 160.66796875 C854.98103427 159.73531337 857.24662034 158.79939811 859.51049805 157.859375 C860.48414307 157.45976563 861.45778809 157.06015625 862.4609375 156.6484375 C863.69831665 156.1368811 863.69831665 156.1368811 864.96069336 155.61499023 C873.48575203 152.57355566 881.33091454 153.12686714 889.66796875 156.45703125 C900.4540061 161.85004992 905.93155875 172.53745312 911.05371094 182.94287109 C911.48718842 183.81099426 911.92066589 184.67911743 912.36727905 185.57354736 C913.78562428 188.41736802 915.19549585 191.26530168 916.60546875 194.11328125 C917.60367911 196.11785743 918.60248971 198.12213482 919.60186768 200.12612915 C922.22695439 205.39336381 924.84517208 210.66398086 927.46154785 215.93554688 C931.63177206 224.33528304 935.81202256 232.73003071 939.99308014 241.1243782 C941.43638115 244.02468734 942.87649657 246.92655951 944.31610107 249.82870483 C948.94561931 259.14627535 953.66198004 268.40535556 958.53598118 277.5973978 C963.62397237 287.21870082 968.46389991 296.96352026 973.3203125 306.703125 C974.34282475 308.75002259 975.3655184 310.79682957 976.38838196 312.84355164 C979.05225159 318.17506396 981.71371915 323.50777166 984.37463379 328.84075928 C987.07316643 334.24808399 989.77397842 339.65426993 992.47460938 345.06054688 C995.51910853 351.15562022 998.56336158 357.25081584 1001.60612488 363.34675598 C1002.29770801 364.73211689 1002.29770801 364.73211689 1003.00326252 366.1454649 C1003.892022 367.92649146 1004.78027826 369.70776924 1005.66797924 371.48932362 C1007.59492462 375.35501868 1009.5279568 379.21706408 1011.48721313 383.0664978 C1011.81541707 383.71394298 1012.14362101 384.36138815 1012.48177052 385.02845287 C1013.33576479 386.71107132 1014.19408485 388.39149242 1015.05281067 390.07170105 C1018.46878963 397.43158564 1018.79251189 407.0546665 1016.3671875 414.7734375 C1015.16363643 417.2522245 1013.85488416 419.49859999 1012.30859375 421.77734375 C1011.93605469 422.36 1011.56351563 422.94265625 1011.1796875 423.54296875 C1005.82630652 430.92951533 995.50286343 434.15344547 987.41796875 437.62890625 C986.37748886 438.080345 985.33700897 438.53178375 984.26499939 438.99690247 C980.86494639 440.47024986 977.46190129 441.93653148 974.05859375 443.40234375 C971.66114137 444.43871501 969.26376281 445.47525706 966.86645508 446.51196289 C950.45906688 453.59816578 934.01000864 460.58317848 917.53540039 467.51147461 C902.66264227 473.76819295 887.82414176 480.10293837 872.99609375 486.46484375 C871.82186859 486.96861542 870.64764343 487.47238708 869.43783569 487.99142456 C863.45352715 490.5591538 857.46960039 493.12777136 851.48583984 495.69677734 C840.92391751 500.23083912 830.35869147 504.75719124 819.79367065 509.2840271 C813.98340189 511.77366257 808.17335269 514.26381033 802.36328125 516.75390625 C800.03222762 517.75293215 797.70117293 518.75195558 795.37011719 519.75097656 C794.20975952 520.24827271 793.04940186 520.74556885 791.85388184 521.25793457 C781.08300797 525.87402337 781.08300797 525.87402337 777.4493103 527.43132019 C775.0329874 528.4668886 772.61666659 529.5024619 770.2003479 530.53804016 C764.2431524 533.09114917 758.28592155 535.64417561 752.32861328 538.19702148 C742.00343939 542.62169021 731.67855682 547.04702933 721.35546875 551.4765625 C702.31043368 559.64742437 683.25230445 567.78687825 664.18359375 575.90234375 C638.55057912 586.81166799 612.94269848 597.77906895 587.34082031 608.76123047 C574.49903805 614.26953025 561.65487743 619.77228292 548.81115723 625.27606201 C545.31289216 626.77515278 541.81464289 628.2742804 538.31640625 629.7734375 C537.16180908 630.26823608 536.00721191 630.76303467 534.81762695 631.27282715 C527.79699736 634.28170338 520.77691951 637.29186294 513.75726318 640.30300903 C488.50236535 651.13626731 463.23772757 661.94583986 437.95153809 672.70587158 C413.72926218 683.014094 389.53342074 693.38359219 365.34082031 703.76123047 C358.32805377 706.7692569 351.31453489 709.77552599 344.30078125 712.78125 C343.14545898 713.27636581 341.99013672 713.77148163 340.79980469 714.28160095 C334.98282227 716.7744159 329.16575419 719.26703083 323.34863281 721.75952148 C310.23747439 727.37761289 297.12787297 732.99930237 284.02128601 738.62805176 C278.06106073 741.18700322 272.09913142 743.74182246 266.13305664 746.28710938 C263.84647835 747.26293043 261.55993804 748.23884052 259.2734375 749.21484375 C258.1673262 749.68692261 257.0612149 750.15900146 255.92158508 750.64538574 C249.79694687 753.26535833 243.69086519 755.92224477 237.60388184 758.62854004 C234.12262679 760.17380928 230.63300229 761.69952839 227.14190674 763.22241211 C225.58063667 763.90987528 224.02351607 764.60686507 222.47137451 765.31469727 C211.94409715 770.11321821 202.31531772 773.03152476 190.66992188 770.11694336 C180.75728175 766.22705325 174.7567808 758.14969409 169.30859375 749.40234375 C168.6734082 748.4057373 168.03822266 747.40913086 167.38378906 746.38232422 C166.03780908 744.26857619 164.6970918 742.15146892 163.36132812 740.03125 C160.63239711 735.70546592 157.86944603 731.4018677 155.10742188 727.09716797 C153.07165132 723.92270497 151.04113594 720.74493381 149.01171875 717.56640625 C145.96106298 712.79220739 142.8927116 708.02997638 139.80859375 703.27734375 C134.57247914 695.20716711 129.39251734 687.1013583 124.2109375 678.99609375 C120.42661552 673.07905141 116.63149873 667.16952757 112.80859375 661.27734375 C107.57255431 653.20711782 102.39251778 645.101359 97.2109375 636.99609375 C93.42661552 631.07905141 89.63149873 625.16952757 85.80859375 619.27734375 C80.57255431 611.20711782 75.39251778 603.101359 70.2109375 594.99609375 C66.42661552 589.07905141 62.63149873 583.16952757 58.80859375 577.27734375 C53.57255431 569.20711782 48.39251778 561.101359 43.2109375 552.99609375 C39.42661552 547.07905141 35.63149873 541.16952757 31.80859375 535.27734375 C26.57255431 527.20711782 21.39251778 519.101359 16.2109375 510.99609375 C12.42661552 505.07905141 8.63149873 499.16952757 4.80859375 493.27734375 C-0.42744569 485.20711782 -5.60748222 477.101359 -10.7890625 468.99609375 C-14.57338448 463.07905141 -18.36850127 457.16952757 -22.19140625 451.27734375 C-27.42744569 443.20711782 -32.60748222 435.101359 -37.7890625 426.99609375 C-41.57338448 421.07905141 -45.36850127 415.16952757 -49.19140625 409.27734375 C-53.72088381 402.29613063 -58.20891625 395.28880615 -62.69140625 388.27734375 C-68.60633402 379.02797959 -74.5247485 369.78155508 -80.52148438 360.58496094 C-81.65949412 358.82665039 -82.7787783 357.05764987 -83.89453125 355.28515625 C-89.94410838 345.84135073 -95.6047679 339.7205603 -106.69140625 336.77734375 C-120.11207657 334.64426495 -132.20234487 340.21068561 -144.56640625 344.71484375 C-146.8798808 345.5390923 -149.19410432 346.36124138 -151.5090332 347.18139648 C-156.26213247 348.86921818 -161.01060838 350.56915781 -165.75537109 352.28027344 C-172.18035836 354.59675862 -178.61497711 356.884962 -185.0546875 359.16015625 C-187.03531902 359.8601074 -189.01595053 360.56005858 -190.99658203 361.26000977 C-191.96726624 361.60299103 -192.93795044 361.94597229 -193.93804932 362.29934692 C-196.89824553 363.34668613 -199.85725921 364.39730066 -202.81591797 365.44897461 C-216.91775169 370.45995216 -231.04740129 375.38678814 -245.19140625 380.27734375 C-261.38267187 385.87592217 -277.54861315 391.54049616 -293.69140625 397.27734375 C-310.85547114 403.37713229 -328.04860081 409.38702997 -345.26416016 415.33984375 C-360.43056762 420.58576692 -375.56989387 425.90344028 -390.69140625 431.27734375 C-407.8564703 437.37748737 -425.05055413 443.38787829 -442.2671814 449.34085083 C-457.37043798 454.56471048 -472.44599824 459.86174509 -487.50390625 465.21484375 C-505.29714965 471.54016218 -523.12688228 477.75303325 -540.97857666 483.91131592 C-557.6326948 489.65833172 -574.25252445 495.49565383 -590.85253906 501.39697266 C-605.94184904 506.75980169 -621.05664653 512.04421605 -636.19140625 517.27734375 C-652.38267187 522.87592217 -668.54861315 528.54049616 -684.69140625 534.27734375 C-701.85547114 540.37713229 -719.04860081 546.38702997 -736.26416016 552.33984375 C-751.43056762 557.58576692 -766.56989387 562.90344028 -781.69140625 568.27734375 C-797.83420126 574.01419202 -814.00020644 579.67857179 -830.19140625 585.27734375 C-845.55678491 590.590966 -860.9035143 595.95314972 -876.22543335 601.39089966 C-879.22545117 602.45475313 -882.22647156 603.51573046 -885.2277832 604.57592773 C-893.93874587 607.65556009 -902.64310448 610.74901281 -911.31880188 613.92686462 C-914.97273945 615.26266149 -918.63214808 616.58303317 -922.29244995 617.90127563 C-923.98623746 618.51591387 -925.67739441 619.13786198 -927.36550903 619.76791382 C-938.11321645 623.7772099 -948.69751454 627.39529886 -960.12890625 623.52734375 C-971.91370269 617.73832094 -977.43505629 609.12495085 -983.31640625 597.71484375 C-984.54998689 595.37125415 -985.78548418 593.02877261 -987.0234375 590.6875 C-987.33276718 590.10005005 -987.64209686 589.5126001 -987.96080017 588.90734863 C-990.85771083 583.4202596 -993.91568903 578.03324027 -997.00390625 572.65234375 C-1002.64882374 562.77417412 -1007.98706573 552.74852111 -1013.2940979 542.68670654 C-1017.80326595 534.14287482 -1022.38725566 525.6603439 -1027.19140625 517.27734375 C-1032.77974193 507.52598024 -1038.0525268 497.62473243 -1043.29492188 487.68505859 C-1047.80382986 479.14175913 -1052.38811998 470.66014425 -1057.19140625 462.27734375 C-1062.46914339 453.05493644 -1067.51933618 443.7228212 -1072.50390625 434.33984375 C-1072.85485352 433.68064941 -1073.20580078 433.02145508 -1073.56738281 432.34228516 C-1078.76790127 422.56501693 -1083.7749673 412.70025505 -1088.69140625 402.77734375 C-1089.02140625 402.11734375 -1089.35140625 401.45734375 -1089.69140625 400.77734375 C-1090.58609059 389.73312553 -1089.45036642 382.09591485 -1082.37890625 373.52734375 C-1076.4488464 366.80756649 -1069.83302977 363.785451 -1061.50390625 361.08984375 C-1059.43961163 360.39729974 -1057.37583141 359.70322101 -1055.3125 359.0078125 C-1053.68997314 358.46519775 -1053.68997314 358.46519775 -1052.03466797 357.91162109 C-1046.35176828 355.98356852 -1040.71181518 353.93700362 -1035.06640625 351.90234375 C-1024.18666607 347.99806613 -1013.27132377 344.20699984 -1002.33740234 340.45751953 C-993.57503557 337.44549282 -984.85368466 334.33169438 -976.14379883 331.17163086 C-966.95940849 327.84980336 -957.72690531 324.67506231 -948.48828125 321.5078125 C-940.6976732 318.83082697 -932.93516899 316.08678087 -925.19140625 313.27734375 C-916.63505315 310.174483 -908.05234601 307.16273304 -899.44140625 304.21484375 C-886.65543297 299.83550709 -873.92094375 295.31777715 -861.19140625 290.77734375 C-847.31021335 285.82613229 -833.41606329 280.92576238 -819.47265625 276.15234375 C-810.99612746 273.24469725 -802.56358595 270.22637055 -794.13964844 267.17016602 C-784.95667353 263.84874206 -775.72551559 260.67458588 -766.48828125 257.5078125 C-758.6976732 254.83082697 -750.93516899 252.08678087 -743.19140625 249.27734375 C-734.63505315 246.174483 -726.05234601 243.16273304 -717.44140625 240.21484375 C-704.65543297 235.83550709 -691.92094375 231.31777715 -679.19140625 226.77734375 C-665.31021335 221.82613229 -651.41606329 216.92576238 -637.47265625 212.15234375 C-628.99612746 209.24469725 -620.56358595 206.22637055 -612.13964844 203.17016602 C-602.95667353 199.84874206 -593.72551559 196.67458588 -584.48828125 193.5078125 C-576.6976732 190.83082697 -568.93516899 188.08678087 -561.19140625 185.27734375 C-552.63505315 182.174483 -544.05234601 179.16273304 -535.44140625 176.21484375 C-522.65543297 171.83550709 -509.92094375 167.31777715 -497.19140625 162.77734375 C-483.31021335 157.82613229 -469.41606329 152.92576238 -455.47265625 148.15234375 C-448.01991182 145.59587909 -440.59843956 142.96321824 -433.19140625 140.27734375 C-424.69680534 137.19757462 -416.17723269 134.20460296 -407.62890625 131.27734375 C-393.15632603 126.31919149 -378.74061144 121.20390537 -364.32391357 116.0859375 C-351.64872694 111.58678145 -338.96625454 107.11571708 -326.24658203 102.74365234 C-318.23214674 99.98242157 -310.26055236 97.10923299 -302.29125977 94.22070312 C-293.05724753 90.88469307 -283.77634191 87.692021 -274.48901367 84.50805664 C-266.69815621 81.83100139 -258.93542896 79.08682044 -251.19140625 76.27734375 C-242.69686 73.1974263 -234.17723006 70.20460206 -225.62890625 67.27734375 C-211.15632603 62.31919149 -196.74061144 57.20390537 -182.32391357 52.0859375 C-169.64872694 47.58678145 -156.96625454 43.11571708 -144.24658203 38.74365234 C-136.23214674 35.98242157 -128.26055236 33.10923299 -120.29125977 30.22070312 C-111.05442775 26.88367436 -101.77102374 23.68897114 -92.48022461 20.50585938 C-85.77835874 18.20416355 -79.0969308 15.85782127 -72.43920898 13.43139648 C-68.35551539 11.94445178 -64.26402966 10.47987973 -60.17041016 9.02050781 C-57.66270171 8.12441999 -55.15752015 7.22252768 -52.65380859 6.31542969 C-49.03856931 5.00879768 -45.41373992 3.73188921 -41.78259277 2.47018433 C-40.37541725 1.97665996 -38.97117631 1.47466486 -37.57043457 0.96316528 C-25.41202245 -3.46550662 -12.03961139 -6.56103593 0 0 Z " fill="#FEFEFE" transform="translate(2195.69140625,1363.22265625)"/>
<path d="M0 0 C3.79123739 3.39548357 7.49844277 6.87435903 11.17285156 10.39550781 C11.99398437 11.17539062 12.81511719 11.95527344 13.66113281 12.75878906 C18.77906876 17.73529673 23.33151499 23.05290281 27.76196289 28.64575195 C28.88793685 30.0421623 30.03257234 31.4235188 31.18334961 32.79956055 C71.40135465 81.08783808 92.62328983 142.77940948 92.61035156 205.33300781 C92.61141907 206.43133942 92.61248657 207.52967102 92.61358643 208.6612854 C92.58701011 227.67526067 91.19264357 245.80363811 87.17285156 264.39550781 C86.94291504 265.46140137 86.71297852 266.52729492 86.47607422 267.62548828 C81.60023888 289.38213501 73.90006452 310.35965598 64.17285156 330.39550781 C63.82673828 331.11367676 63.480625 331.8318457 63.12402344 332.57177734 C54.59108738 350.05458135 43.45462404 366.33664665 31.17285156 381.39550781 C30.75455078 381.91532227 30.33625 382.43513672 29.90527344 382.97070312 C17.68086982 398.08268942 3.76950817 412.75028297 -11.82714844 424.39550781 C-13.17386384 425.44322074 -14.52018117 426.49144543 -15.86621094 427.54003906 C-41.64004915 447.34300748 -70.15760892 461.04527638 -100.82714844 471.39550781 C-101.99334717 471.79576172 -101.99334717 471.79576172 -103.18310547 472.20410156 C-129.70471829 481.25876984 -156.85193063 483.62855436 -184.70214844 483.64550781 C-185.70159485 483.64618256 -186.70104126 483.6468573 -187.73077393 483.64755249 C-202.64888162 483.63157062 -217.13229176 483.19347902 -231.82714844 480.39550781 C-232.74367188 480.22921875 -233.66019531 480.06292969 -234.60449219 479.89160156 C-289.72841247 469.68346818 -338.58876074 443.06157167 -378.82714844 404.39550781 C-379.31554199 403.92902832 -379.80393555 403.46254883 -380.30712891 402.98193359 C-387.03961365 396.52082882 -393.06092696 389.72280448 -398.82714844 382.39550781 C-399.71022588 381.30222135 -400.59438449 380.20980751 -401.47949219 379.11816406 C-429.62782415 344.178662 -448.48061754 301.68115872 -457.07714844 257.70800781 C-457.22837158 256.93811523 -457.37959473 256.16822266 -457.53540039 255.375 C-460.35463998 239.94638901 -461.20963935 224.61008261 -461.13964844 208.95800781 C-461.13682861 208.04109161 -461.13400879 207.12417542 -461.13110352 206.17947388 C-460.78246758 130.33388949 -429.7319127 61.32188131 -376.82714844 7.39550781 C-374.25343191 4.93617868 -371.56480589 2.66874124 -368.82714844 0.39550781 C-367.82490921 -0.4886792 -366.82513404 -1.37566312 -365.82714844 -2.26464844 C-293.62644097 -66.16159132 -189.91777221 -85.89669032 0 0 Z " fill="#FEFEFE" transform="translate(2515.8271484375,797.6044921875)"/>
</svg>
