<svg width="248" height="326" viewBox="0 0 248 326" fill="none" xmlns="http://www.w3.org/2000/svg">
<path d="M110.616 207.955L73.2536 145.259C70.6983 140.971 72.7976 135.42 77.5511 133.897L103.694 125.517C107.043 124.444 110.696 125.757 112.594 128.718L157.382 198.552L219.454 296.87C222.329 301.424 219.805 307.45 214.542 308.595L181.378 315.81C177.604 316.631 173.801 314.552 172.455 310.932L144.677 236.216C142.358 229.979 133.778 229.362 130.591 235.205L88.6416 312.118C86.9865 315.152 83.5239 316.726 80.1493 315.978L48.5948 308.981C42.9373 307.727 40.6011 300.939 44.288 296.468L109.937 216.865C112.022 214.336 112.294 210.77 110.616 207.955Z" fill="white" style="fill:white;fill-opacity:1;"/>
<circle cx="143.371" cy="31.5036" r="31.5036" fill="white" style="fill:white;fill-opacity:1;"/>
<path d="M10.908 112.134L121.841 73.1249C125.121 71.9712 128.769 73.1413 130.767 75.9881L156.278 112.344C158.362 115.314 162.225 116.443 165.58 115.064L222.697 91.5864C226.446 90.0453 230.749 91.6496 232.575 95.2688L241.336 112.637C243.353 116.635 241.577 121.504 237.461 123.266L155.425 158.373C151.942 159.863 147.893 158.622 145.844 155.436L119.796 114.919C117.853 111.898 114.092 110.604 110.702 111.792L24.3739 142.043C20.7859 143.301 16.8154 141.773 14.9951 138.435L6.66957 123.17C4.3797 118.971 6.39622 113.72 10.908 112.134Z" fill="white" style="fill:white;fill-opacity:1;"/>
</svg>
